<svg id="Layer_1" data-name="Layer 1" xmlns="http://www.w3.org/2000/svg" viewBox="0 0 172.61 221.66"><defs><style>.cls-1,.cls-3,.cls-4{fill:#fff;}.cls-1,.cls-2,.cls-4{stroke:#000;stroke-miterlimit:10;}.cls-1{stroke-width:1.03px;}</style></defs><title>rover-logo</title><g id="dog"><path id="tail" class="cls-1" d="M430.5,208.5c3,0-2.65,7.67,14,32,13,19,56.3,44.58,11,32C419.5,262.5,428.68,208.5,430.5,208.5Z" transform="translate(-427.6 -77)"/><path class="cls-1" d="M589.5,275.5c-10-5-20.08.92-22,1,2.38-3.76,7.65-10.15,9-15,4.9-17.55,1.2-33.06-9.79-36.78-8.13-2.76-13.52-2.69-17.29-.73-.67-17.07-2.74-32.86-5.92-41.49-7-19-21-78-40-30-9.39,23.71-11.69,53.76-10.42,80-5.61-5.76-12.31-8.54-18.46-6.82-11.17,3.12-16.25,19.88-11.35,37.43a49.13,49.13,0,0,0,5.72,13,22.07,22.07,0,0,0-6.09.61c-7.79,1.86-13.16,7.3-12,12.13s8.41,7.24,16.2,5.37a21.65,21.65,0,0,0,6.67-2.8,22.62,22.62,0,0,0,11.73,3.05c8.22,0,15.08-3.78,16.66-8.8a30.35,30.35,0,0,0,2.34,4.8c4.14,6.62,32.08,8.05,37,0,.26-.43.52-.9.77-1.39,3.1,2.66,8,4.39,13.56,4.39a22.27,22.27,0,0,0,11.67-3,21.92,21.92,0,0,0,6.74,2.75c7.79,1.87,24.1.08,25.26-4.75S596.66,279.08,589.5,275.5Z" transform="translate(-427.6 -77)"/><circle cx="83.9" cy="9.5" r="9"/><path d="M511.5,78a8.5,8.5,0,1,1-8.5,8.5,8.51,8.51,0,0,1,8.5-8.5m0-1a9.5,9.5,0,1,0,9.5,9.5,9.5,9.5,0,0,0-9.5-9.5Z" transform="translate(-427.6 -77)"/><path id="left_ear" data-name="left ear" class="cls-2" d="M486.5,139.5c-12,8-23,36-20,54,3,15,18,17,25,14,2.91-1.25,20-20,20-40S502.5,134.5,486.5,139.5Z" transform="translate(-427.6 -77)"/><g id="rt_ear" data-name="rt ear"><path d="M555,205.5c-12.41,0-22.5-19.51-22.5-43.5,0-21.57,12.09-28.82,17.6-28.82a4.61,4.61,0,0,1,1.71.28c4.89,2,25.7,23.65,27.69,45.59.69,7.6-1.09,13.8-5.31,18.42C568.4,203.81,559.4,205.5,555,205.5Z" transform="translate(-427.6 -77)"/><path d="M550.1,133.68a4.09,4.09,0,0,1,1.53.25c2.22.89,8.55,6.65,14.68,15.15,9.43,13.08,12.11,23.54,12.69,30,.68,7.46-1.06,13.53-5.18,18-5.68,6.21-14.5,7.87-18.82,7.87-12.13,0-22-19.29-22-43,0-21.19,11.74-28.32,17.1-28.32m0-1c-6.11,0-18.1,7.87-18.1,29.32,0,24,10,44,23,44,8,0,27-5,25-27s-23-44-28-46a5.17,5.17,0,0,0-1.9-.32Z" transform="translate(-427.6 -77)"/></g><g id="face"><path class="cls-3" d="M518.5,165.48c-18.19,0-33-17.26-33-38.48s14.74-38.48,32.87-38.48h.11c18.25.06,33,17.33,33,38.48S536.62,165.48,518.5,165.48Z" transform="translate(-427.6 -77)"/><path d="M518.39,89h.11c18,.07,32.53,17.1,32.47,38s-14.63,38-32.47,38S486,147.94,486,127s14.52-38,32.36-38m0-1C499.94,88,485,105.5,485,127s15,39,33.5,39,33.43-17.46,33.5-39c.06-21.32-15-38.93-33.5-39Z" transform="translate(-427.6 -77)"/></g><g id="smile"><path class="cls-4" d="M502.5,139.5s8,10,14,2c4-6,7-18-1-40" transform="translate(-427.6 -77)"/><path class="cls-4" d="M536.5,135.5c-9,15-18,2-18,2" transform="translate(-427.6 -77)"/></g><path id="rt_leg" data-name="rt leg" class="cls-4" d="M515.5,281.5v-56h-11v56.32c-5.2,1-8.64,4.06-9,7.68-1,10,7.89,8,12,8,3.19,0,10.79.26,13-1,2.57-1.47,4-6,2-10C520.09,281.68,518.53,283,515.5,281.5Z" transform="translate(-427.6 -77)"/><g id="lf_leg" data-name="lf leg"><path class="cls-3" d="M531.15,298.16c-1.81,0-4.39-.19-5.88-1.83-1.1-1.22-1.53-3.17-1.27-5.78.35-3.49,3.72-6.33,8.59-7.23l.41-.08V227h10v55.81l.28.14a12.13,12.13,0,0,0,2.39.82c1.66.43,2.77.72,4.38,4,1.86,3.71.58,8-1.8,9.35-1.67.95-7.21.95-9.06.95H535.5c-.55,0-1.18,0-1.87.07S532,298.16,531.15,298.16Z" transform="translate(-427.6 -77)"/><path d="M542.5,227.5v55.63l.57.27a12.88,12.88,0,0,0,2.47.86c1.59.41,2.55.66,4.07,3.69,1.73,3.46.58,7.44-1.61,8.68-1,.59-4,.89-8.83.89H535.5c-.57,0-1.21,0-1.89.07s-1.62.09-2.46.09c-2.73,0-4.48-.53-5.51-1.66s-1.39-2.93-1.14-5.4c.32-3.26,3.54-5.93,8.18-6.79l.82-.16V227.5h9m1-1h-11v56.32c-5.2,1-8.64,4.06-9,7.68-.71,7.14,3.62,8.16,7.65,8.16,1.61,0,3.17-.16,4.35-.16l3.67,0c3.49,0,7.76-.13,9.33-1,2.57-1.47,4-6,2-10-2.41-4.82-4-3.54-7-5v-56Z" transform="translate(-427.6 -77)"/></g><rect class="cls-3" x="71.4" y="136" width="47" height="16"/></g></svg>