<svg id="Layer_1" data-name="Layer 1" xmlns="http://www.w3.org/2000/svg" viewBox="0 0 37.54 35"><title>paw</title><g id="paw"><circle cx="13.05" cy="23.5" r="10.95"/><path d="M354.5,235.1a10.4,10.4,0,1,1-10.4,10.4,10.4,10.4,0,0,1,10.4-10.4m0-1.1A11.5,11.5,0,1,0,366,245.5,11.5,11.5,0,0,0,354.5,234Z" transform="translate(-341.45 -222)"/><ellipse cx="358.5" cy="227" rx="5" ry="4.5" transform="translate(-245.33 338.47) rotate(-84.15)"/><ellipse cx="369.75" cy="233.5" rx="5.02" ry="4.47" transform="translate(-402.97 83.92) rotate(-41.81)"/><ellipse cx="374" cy="245" rx="5" ry="4.5" transform="translate(-371.49 -168.45) rotate(-7.87)"/><ellipse cx="346" cy="229" rx="4.5" ry="5" transform="translate(-393.76 -109.25) rotate(-17.23)"/></g></svg>